<?xml version="1.0" encoding="utf-8"?>
<!-- Generator: Adobe Illustrator 18.0.0, SVG Export Plug-In . SVG Version: 6.00 Build 0)  -->
<!DOCTYPE svg PUBLIC "-//W3C//DTD SVG 1.1//EN" "http://www.w3.org/Graphics/SVG/1.1/DTD/svg11.dtd">
<svg version="1.1" id="Layer_1" xmlns="http://www.w3.org/2000/svg" xmlns:xlink="http://www.w3.org/1999/xlink" x="0px" y="0px"
	 viewBox="0 0 202 202" enable-background="new 0 0 202 202" xml:space="preserve">
<g>
	<circle fill="none" stroke="#434242" stroke-width="2" cx="101" cy="101" r="100"/>
	<path fill="none" stroke="#434242" stroke-width="2" stroke-linecap="round" stroke-linejoin="round" d="M70,126l72-18
		c0,0-3-22.7-18-43c-16.8-22.8-49-31-49-31s11.3,25.7,8,50C79.2,112.1,70,126,70,126z"/>
	<path fill="none" stroke="#434242" stroke-width="2" stroke-linecap="round" d="M75,34c0,0,18.8,20.8,23.3,45
		c3.5,18.8,2.6,32.3,1.7,39"/>
	<path fill="#434242" d="M191,144c-7.7,0-11.6,2.1-15.4,4.1c-3.7,2-7.2,3.9-14.4,3.9s-10.7-1.9-14.4-3.9c-3.8-2-7.7-4.1-15.4-4.1
		c-7.7,0-11.6,2.1-15.4,4.1c-3.7,2-7.2,3.9-14.4,3.9c-7.2,0-10.7-1.9-14.4-3.9c-3.8-2-7.7-4.1-15.4-4.1c-7.7,0-11.6,2.1-15.4,4.1
		c-3.7,2-7.2,3.9-14.4,3.9c-7.2,0-10.7-1.9-14.4-3.9c-3.8-2-7.7-4.1-15.4-4.1c-0.5,0-0.8,0.3-0.9,0.7c0.2,0.4,0.4,0.8,0.6,1.2
		c0.1,0,0.2,0.1,0.4,0.1c7.2,0,10.7,1.9,14.4,3.9c3.8,2,7.7,4.1,15.4,4.1c7.7,0,11.6-2.1,15.4-4.1c3.7-2,7.2-3.9,14.4-3.9
		c7.2,0,10.7,1.9,14.4,3.9c3.8,2,7.7,4.1,15.4,4.1s11.6-2.1,15.4-4.1c3.7-2,7.2-3.9,14.4-3.9c7.2,0,10.7,1.9,14.4,3.9
		c3.8,2,7.7,4.1,15.4,4.1c7.7,0,11.6-2.1,15.4-4.1c3.6-1.9,7-3.8,13.8-3.9c0.3-0.6,0.6-1.3,1-2C191.2,144,191.1,144,191,144z"/>
	<path fill="none" stroke="#434242" stroke-width="2" stroke-linecap="round" d="M147.1,145.3c0.7-0.7,1.3-1.5,1.9-2.3
		c8-10.2,11-24,11-24s-86.5,16.8-112,22c0,2.8,0.5,5.1,1.2,7.1"/>
	<circle fill="none" stroke="#434242" stroke-width="2" cx="101" cy="101" r="100"/>
	<path fill="#434242" d="M175.6,156.1c-3.7,2-7.2,3.9-14.4,3.9s-10.7-1.9-14.4-3.9c-3.8-2-7.7-4.1-15.4-4.1
		c-7.7,0-11.6,2.1-15.4,4.1c-3.7,2-7.2,3.9-14.4,3.9c-7.2,0-10.7-1.9-14.4-3.9c-3.8-2-7.7-4.1-15.4-4.1c-7.7,0-11.6,2.1-15.4,4.1
		c-3.7,2-7.2,3.9-14.4,3.9c-7.2,0-10.7-1.9-14.4-3.9c-3.2-1.7-6.6-3.5-12.3-4c0.4,0.7,0.9,1.4,1.3,2.1c4.4,0.6,7.2,2.1,10.1,3.6
		c3.8,2,7.7,4.1,15.4,4.1c7.7,0,11.6-2.1,15.4-4.1c3.7-2,7.2-3.9,14.4-3.9c7.2,0,10.7,1.9,14.4,3.9c3.8,2,7.7,4.1,15.4,4.1
		s11.6-2.1,15.4-4.1c3.7-2,7.2-3.9,14.4-3.9c7.2,0,10.7,1.9,14.4,3.9c3.8,2,7.7,4.1,15.4,4.1c7.7,0,11.6-2.1,15.4-4.1
		c2.6-1.4,5.2-2.8,9-3.4c0.5-0.7,0.9-1.5,1.4-2.2C181.8,152.8,178.6,154.5,175.6,156.1z"/>
	<path fill="#434242" d="M179.2,163.3c-1.3,0.6-2.5,1.2-3.6,1.8c-3.7,2-7.2,3.9-14.4,3.9s-10.7-1.9-14.4-3.9
		c-3.8-2-7.7-4.1-15.4-4.1c-7.7,0-11.6,2.1-15.4,4.1c-3.7,2-7.2,3.9-14.4,3.9c-7.2,0-10.7-1.9-14.4-3.9c-3.8-2-7.7-4.1-15.4-4.1
		c-7.7,0-11.6,2.1-15.4,4.1c-3.7,2-7.2,3.9-14.4,3.9c-7.2,0-10.7-1.9-14.4-3.9c-1.6-0.8-3.2-1.7-5.1-2.4c0.9,1.2,1.9,2.4,2.9,3.5
		c0.4,0.2,0.8,0.4,1.2,0.7c3.8,2,7.7,4.1,15.4,4.1c7.7,0,11.6-2.1,15.4-4.1c3.7-2,7.2-3.9,14.4-3.9c7.2,0,10.7,1.9,14.4,3.9
		c3.8,2,7.7,4.1,15.4,4.1s11.6-2.1,15.4-4.1c3.7-2,7.2-3.9,14.4-3.9c7.2,0,10.7,1.9,14.4,3.9c3.8,2,7.7,4.1,15.4,4.1
		c7.3,0,11.2-1.9,14.8-3.8C177.1,165.9,178.2,164.6,179.2,163.3z"/>
</g>
<g>
</g>
<g>
</g>
<g>
</g>
<g>
</g>
<g>
</g>
<g>
</g>
<g>
</g>
<g>
</g>
<g>
</g>
<g>
</g>
<g>
</g>
<g>
</g>
<g>
</g>
<g>
</g>
<g>
</g>
</svg>
