<?xml version="1.0" encoding="utf-8"?>
<!-- Generator: Adobe Illustrator 18.0.0, SVG Export Plug-In . SVG Version: 6.00 Build 0)  -->
<!DOCTYPE svg PUBLIC "-//W3C//DTD SVG 1.1//EN" "http://www.w3.org/Graphics/SVG/1.1/DTD/svg11.dtd">
<svg version="1.1" id="Layer_1" xmlns="http://www.w3.org/2000/svg" xmlns:xlink="http://www.w3.org/1999/xlink" x="0px" y="0px"
	 viewBox="0 0 202 202" enable-background="new 0 0 202 202" xml:space="preserve">
<g>
	<g>
		<path fill="none" stroke="#434242" stroke-width="2" d="M194.7,99.7c-4,2-8.8,2.4-13.4,0.8s-7.9-5.1-9.7-9.2
			c-4.5,0.5-9.1-0.7-12.8-3.9c-3.7-3.1-5.7-7.5-6-11.9c-4.4-1.1-8.3-3.8-10.7-8c-2.4-4.2-2.8-9-1.6-13.3c-3.7-2.5-6.5-6.4-7.3-11.2
			c-0.8-4.8,0.4-9.4,3.1-13c-2.7-3.6-3.9-8.3-3.1-13c0.6-3.5,2.3-6.6,4.7-9C126.4,3.5,114,1,101,1C45.8,1,1,45.8,1,101
			c0,55.2,44.8,100,100,100c54.3,0,98.4-43.2,100-97.1C198.6,103,196.4,101.5,194.7,99.7z"/>
	</g>
	<circle fill="#434242" cx="51.5" cy="51.5" r="5.5"/>
	<circle fill="#434242" cx="174" cy="123" r="5"/>
	<circle fill="#434242" cx="97" cy="48" r="4"/>
	<circle fill="#434242" cx="130.5" cy="106.5" r="5.5"/>
	<circle fill="#434242" cx="56.5" cy="146.5" r="3.5"/>
	<circle fill="#434242" cx="104.5" cy="174.5" r="3.5"/>
	<circle fill="#434242" cx="147" cy="162" r="5"/>
	<circle fill="#434242" cx="102" cy="135" r="5"/>
	<circle fill="#434242" cx="81.5" cy="90.5" r="6.5"/>
	<circle fill="#434242" cx="33" cy="99" r="5"/>
	<path fill="none" stroke="#434242" stroke-width="2" stroke-linecap="round" stroke-linejoin="round" d="M64.1,186.1
		c-23.3-9.6-41.6-28.9-50-52.8"/>
</g>
<g>
</g>
<g>
</g>
<g>
</g>
<g>
</g>
<g>
</g>
<g>
</g>
<g>
</g>
<g>
</g>
<g>
</g>
<g>
</g>
<g>
</g>
<g>
</g>
<g>
</g>
<g>
</g>
<g>
</g>
</svg>
