<?xml version="1.0" encoding="utf-8"?>
<!-- Generator: Adobe Illustrator 18.0.0, SVG Export Plug-In . SVG Version: 6.00 Build 0)  -->
<!DOCTYPE svg PUBLIC "-//W3C//DTD SVG 1.1//EN" "http://www.w3.org/Graphics/SVG/1.1/DTD/svg11.dtd">
<svg version="1.1" id="Layer_1" xmlns="http://www.w3.org/2000/svg" xmlns:xlink="http://www.w3.org/1999/xlink" x="0px" y="0px"
	 viewBox="0 0 12 16" enable-background="new 0 0 12 16" xml:space="preserve">
<g>
	<g>
		<path d="M4.8,16c-2,0-4.1-1.4-4.2-4.1c0-0.3,0.2-0.6,0.5-0.6c0,0,0,0,0,0c0.3,0,0.5,0.2,0.6,0.5c0,2.1,1.6,3,3.1,3
			c1.4,0,2.1-0.9,2.1-0.9c0,0,2.3-3.2,3.2-4.7c0.9-1.3,0.8-3.2,0.8-3.2c0-2.8-2.2-5-4.9-5S1.1,3.3,1.1,6c0,0.3-0.2,0.6-0.6,0.6
			S0,6.4,0,6c0-3.3,2.7-6,6-6s6,2.7,6,6c0,0.1,0.1,2.2-0.9,3.8c-1,1.5-3.2,4.6-3.3,4.8C7.7,14.7,6.7,16,4.8,16z"/>
	</g>
	<g>
		<path d="M3.7,9C3.5,9,3.3,8.8,3.3,8.5S3.5,8,3.7,8C3.8,8,4,7.9,4,7.7c0-0.1,0-0.5-0.6-0.5H3l0-0.5C3.1,5.4,3.8,3,6.1,3
			C8.2,3,8.9,5.2,9,6.4c0,0.3-0.1,0.5-0.4,0.5c-0.2,0-0.4-0.2-0.4-0.4C8.2,6.4,8,4,6.1,4C4.5,4,4,5.5,3.9,6.3C4.4,6.5,4.8,7,4.8,7.7
			C4.8,8.4,4.3,9,3.7,9z"/>
	</g>
</g>
<g>
</g>
<g>
</g>
<g>
</g>
<g>
</g>
<g>
</g>
<g>
</g>
<g>
</g>
<g>
</g>
<g>
</g>
<g>
</g>
<g>
</g>
<g>
</g>
<g>
</g>
<g>
</g>
<g>
</g>
</svg>
