<?xml version="1.0" encoding="utf-8"?>
<!-- Generator: Adobe Illustrator 18.0.0, SVG Export Plug-In . SVG Version: 6.00 Build 0)  -->
<!DOCTYPE svg PUBLIC "-//W3C//DTD SVG 1.1//EN" "http://www.w3.org/Graphics/SVG/1.1/DTD/svg11.dtd">
<svg version="1.1" id="Layer_1" xmlns="http://www.w3.org/2000/svg" xmlns:xlink="http://www.w3.org/1999/xlink" x="0px" y="0px"
	 viewBox="0 0 32 32" enable-background="new 0 0 32 32" xml:space="preserve">
<g>
	<path fill="#8E394F" d="M16,0C7.2,0,0,7.2,0,16s7.2,16,16,16s16-7.2,16-16S24.8,0,16,0z M16,30C8.3,30,2,23.7,2,16S8.3,2,16,2
		s14,6.3,14,14S23.7,30,16,30z"/>
	<path fill="#8E394F" d="M16,9c-3.9,0-7,3.1-7,7c0,3.9,3.1,7,7,7s7-3.1,7-7C23,12.1,19.9,9,16,9z M16,21c-2.8,0-5-2.2-5-5s2.2-5,5-5
		s5,2.2,5,5S18.8,21,16,21z"/>
	<g>
		<g>
			<g>
				<polygon fill="#8E394F" points="30.5,21.5 30.5,11.5 21.5,13.5 21.5,19.5 				"/>
			</g>
			<g>
				<polygon fill="#8E394F" points="1.5,11.5 1.5,21.5 10.5,19.5 10.5,13.5 				"/>
			</g>
		</g>
		<g>
			<g>
				<polygon fill="#8E394F" points="11,31 21,31 19,22 13,22 				"/>
			</g>
			<g>
				<polygon fill="#8E394F" points="21,2 11,2 13,11 19,11 				"/>
			</g>
		</g>
	</g>
</g>
<g>
</g>
<g>
</g>
<g>
</g>
<g>
</g>
<g>
</g>
<g>
</g>
<g>
</g>
<g>
</g>
<g>
</g>
<g>
</g>
<g>
</g>
<g>
</g>
<g>
</g>
<g>
</g>
<g>
</g>
</svg>
