<?xml version="1.0" encoding="utf-8"?>
<!-- Generator: Adobe Illustrator 18.0.0, SVG Export Plug-In . SVG Version: 6.00 Build 0)  -->
<!DOCTYPE svg PUBLIC "-//W3C//DTD SVG 1.1//EN" "http://www.w3.org/Graphics/SVG/1.1/DTD/svg11.dtd">
<svg version="1.1" id="Layer_1" xmlns="http://www.w3.org/2000/svg" xmlns:xlink="http://www.w3.org/1999/xlink" x="0px" y="0px"
	 viewBox="0 0 13 16" enable-background="new 0 0 13 16" xml:space="preserve">
<g>
	<path d="M10.5,6.5C10.2,6.5,10,6.3,10,6V4.1C10,2.4,8.3,1,6.5,1C4.7,1,3,2.4,3,4.1V6c0,0.3-0.2,0.5-0.5,0.5S2,6.3,2,6V4.1
		C2,1.8,4.1,0,6.5,0C8.8,0,11,1.8,11,4.1V6C11,6.3,10.8,6.5,10.5,6.5z"/>
	<path d="M11,16H2c-1.1,0-2-0.9-2-2V8c0-1.1,0.9-2,2-2h9c1.1,0,2,0.9,2,2v6C13,15.1,12.1,16,11,16z M2,7C1.4,7,1,7.4,1,8v6
		c0,0.6,0.4,1,1,1h9c0.6,0,1-0.4,1-1V8c0-0.6-0.4-1-1-1H2z"/>
	<path fill-rule="evenodd" clip-rule="evenodd" d="M6.5,9c0.6,0,1,0.4,1,1c0,0.6-0.4,1-1,1s-1-0.4-1-1C5.5,9.4,5.9,9,6.5,9z"/>
	<path fill-rule="evenodd" clip-rule="evenodd" d="M6.5,10C6.8,10,7,10.2,7,10.5v2C7,12.8,6.8,13,6.5,13C6.2,13,6,12.8,6,12.5v-2
		C6,10.2,6.2,10,6.5,10z"/>
</g>
<g>
</g>
<g>
</g>
<g>
</g>
<g>
</g>
<g>
</g>
<g>
</g>
<g>
</g>
<g>
</g>
<g>
</g>
<g>
</g>
<g>
</g>
<g>
</g>
<g>
</g>
<g>
</g>
<g>
</g>
</svg>
