<?xml version="1.0" encoding="utf-8"?>
<!-- Generator: Adobe Illustrator 18.0.0, SVG Export Plug-In . SVG Version: 6.00 Build 0)  -->
<!DOCTYPE svg PUBLIC "-//W3C//DTD SVG 1.1//EN" "http://www.w3.org/Graphics/SVG/1.1/DTD/svg11.dtd">
<svg version="1.1" id="Layer_1" xmlns="http://www.w3.org/2000/svg" xmlns:xlink="http://www.w3.org/1999/xlink" x="0px" y="0px"
	 viewBox="0 0 202 202" enable-background="new 0 0 202 202" xml:space="preserve">
<g>
	<g>
		<circle fill="none" stroke="#FFFFFF" stroke-width="2" cx="101" cy="101" r="100"/>
		<path fill="none" stroke="#FFFFFF" stroke-width="2" stroke-linecap="round" stroke-linejoin="round" d="M110.4,193.3
			c-25,3-50.4-4.9-69.4-21.6"/>
	</g>
	<g>
		<line fill="none" stroke="#FFFFFF" stroke-width="2" x1="60" y1="78" x2="29" y2="78"/>
		<line fill="none" stroke="#FFFFFF" stroke-width="2" x1="60" y1="86" x2="39" y2="86"/>
		<line fill="none" stroke="#FFFFFF" stroke-width="2" x1="60" y1="94" x2="49" y2="94"/>
	</g>
	<g>
		<g>
			<path fill="none" stroke="#FFFFFF" stroke-width="2" d="M136,121c0,1.7-1.4,3-3,3H69c-1.7,0-3-1.3-3-3V81c0-1.7,1.3-3,3-3h64
				c1.6,0,3,1.3,3,3V121z"/>
		</g>
		<polyline fill="none" stroke="#FFFFFF" stroke-width="2" points="127,86 101,101 75.5,86 		"/>
	</g>
</g>
<g>
</g>
<g>
</g>
<g>
</g>
<g>
</g>
<g>
</g>
<g>
</g>
<g>
</g>
<g>
</g>
<g>
</g>
<g>
</g>
<g>
</g>
<g>
</g>
<g>
</g>
<g>
</g>
<g>
</g>
</svg>
