<?xml version="1.0" encoding="utf-8"?>
<!-- Generator: Adobe Illustrator 18.0.0, SVG Export Plug-In . SVG Version: 6.00 Build 0)  -->
<!DOCTYPE svg PUBLIC "-//W3C//DTD SVG 1.1//EN" "http://www.w3.org/Graphics/SVG/1.1/DTD/svg11.dtd">
<svg version="1.1" id="Layer_1" xmlns="http://www.w3.org/2000/svg" xmlns:xlink="http://www.w3.org/1999/xlink" x="0px" y="0px"
	 viewBox="0 0 24 64" enable-background="new 0 0 24 64" xml:space="preserve">
<g>
	<g>
		<path d="M24,2c0,1.1-0.9,2-2,2H2C0.9,4,0,3.1,0,2l0,0c0-1.1,0.9-2,2-2h20C23.1,0,24,0.9,24,2L24,2z"/>
	</g>
	<g>
		<path d="M24,22c0,1.1-0.9,2-2,2h-8c-1.1,0-2-0.9-2-2l0,0c0-1.1,0.9-2,2-2h8C23.1,20,24,20.9,24,22L24,22z"/>
	</g>
	<g>
		<path d="M24,42c0,1.1-0.9,2-2,2h-8c-1.1,0-2-0.9-2-2l0,0c0-1.1,0.9-2,2-2h8C23.1,40,24,40.9,24,42L24,42z"/>
	</g>
	<g>
		<path d="M24,62c0,1.1-0.9,2-2,2h-8c-1.1,0-2-0.9-2-2l0,0c0-1.1,0.9-2,2-2h8C23.1,60,24,60.9,24,62L24,62z"/>
	</g>
</g>
<g>
</g>
<g>
</g>
<g>
</g>
<g>
</g>
<g>
</g>
<g>
</g>
<g>
</g>
<g>
</g>
<g>
</g>
<g>
</g>
<g>
</g>
<g>
</g>
<g>
</g>
<g>
</g>
<g>
</g>
</svg>
