<?xml version="1.0" encoding="utf-8"?>
<!-- Generator: Adobe Illustrator 18.0.0, SVG Export Plug-In . SVG Version: 6.00 Build 0)  -->
<!DOCTYPE svg PUBLIC "-//W3C//DTD SVG 1.1//EN" "http://www.w3.org/Graphics/SVG/1.1/DTD/svg11.dtd">
<svg version="1.1" id="Layer_1" xmlns="http://www.w3.org/2000/svg" xmlns:xlink="http://www.w3.org/1999/xlink" x="0px" y="0px"
	 viewBox="0 0 16 15.6" enable-background="new 0 0 16 15.6" xml:space="preserve">
<path d="M14.7,10.8c0.2-0.3,0.3-0.7,0.3-1.1v-1c0-1.1-0.9-2-2-2h0l0-1c0-1.1-1.1-2-2-2H9.1c-0.1,0-0.9,0-1.3-0.1L7,2.6
	C6.3,1.8,6.6,1.2,6.7,1.2C6.8,1,6.9,0.9,7,0.7L7.3,0H6.5C6.4,0,6.2,0,6,0.1c-0.1,0-3,0.7-3,5.6c0,0.3,0.1,0.6,0.3,1H3
	c-1.1,0-2,0.9-2,2v1c0,0.4,0.1,0.8,0.3,1.1C0.6,11,0,11.8,0,12.6v1c0,1.1,0.9,2,2,2h12c1.1,0,2-0.9,2-2v-1
	C16,11.8,15.4,11,14.7,10.8z M4,5.6C4,3,4.9,1.9,5.6,1.4c-0.1,0.5,0,1.2,0.7,1.9l1.1,1.3l0.2,0c0,0,1.5,0.1,1.6,0.1H11
	c0.4,0,1,0.3,1,1s-0.5,1-1,1H5C4.1,6.6,4,5.7,4,5.6z M2,8.6c0-0.6,0.4-1,1-1h1.8c0.1,0,0.2,0,0.2,0h6c0.2,0,0.3,0,0.5,0H13
	c0.6,0,1,0.4,1,1v1c0,0.6-0.4,1-1,1H3c-0.6,0-1-0.4-1-1V8.6z M15,13.6c0,0.6-0.4,1-1,1H2c-0.6,0-1-0.4-1-1v-1c0-0.6,0.4-1,1-1h1h10
	h1c0.6,0,1,0.4,1,1V13.6z"/>
<g>
</g>
<g>
</g>
<g>
</g>
<g>
</g>
<g>
</g>
<g>
</g>
<g>
</g>
<g>
</g>
<g>
</g>
<g>
</g>
<g>
</g>
<g>
</g>
<g>
</g>
<g>
</g>
<g>
</g>
</svg>
