<?xml version="1.0" encoding="utf-8"?>
<!-- Generator: Adobe Illustrator 18.0.0, SVG Export Plug-In . SVG Version: 6.00 Build 0)  -->
<!DOCTYPE svg PUBLIC "-//W3C//DTD SVG 1.1//EN" "http://www.w3.org/Graphics/SVG/1.1/DTD/svg11.dtd">
<svg version="1.1" id="Layer_1" xmlns="http://www.w3.org/2000/svg" xmlns:xlink="http://www.w3.org/1999/xlink" x="0px" y="0px"
	 viewBox="0 0 28 18" enable-background="new 0 0 28 18" xml:space="preserve">
<g>
	<path d="M27,12.5l-4.4-2.1c0.6-0.3,2.8-0.4,3-0.9c0,0-0.9-1.4-1.1-3.2c-0.1-0.7-0.2-1.6-0.4-2.9C24,1.5,22.2,0,20,0c0,0,0,0,0,0
		c0,0,0,0,0,0c-0.7,0-1.4,0.2-2,0.5c0.4,0.2,0.8,0.4,1.1,0.7C19.4,1.1,19.7,1,20,1c0,0,0,0,0,0c0,0,0,0,0,0c1.7,0,3,1.1,3.2,2.6
		c0.1,0.8,0.2,1.5,0.3,2c0,0.3,0.1,0.6,0.1,0.9c0.1,1,0.4,1.9,0.7,2.6c-0.2,0-0.4,0.1-0.6,0.1c-0.7,0.1-1.1,0.2-1.5,0.4
		c-0.3,0.2-0.6,0.5-0.6,0.9c0,0.4,0.2,0.7,0.6,0.9l4.4,2.1c0,0,0.1,0,0.1,0c0.2,0.1,0.3,0.2,0.3,0.2l0,1.3h-3v1h3c0.6,0,1-0.4,1-1
		v-1.3C28,12.9,27,12.5,27,12.5z"/>
	<path d="M14,3c1.7,0,3.5,1.4,3.5,2.5V8c0,1-0.4,2.8-1.5,3.6c-0.3,0.2-0.4,0.6-0.4,0.9c0,0.3,0.3,0.6,0.6,0.8l4.4,2.1
		c0,0,0.4,0.1,0.4,0.6l0,1H7v-1c0-0.4,0.3-0.5,0.4-0.6l4.4-2.1c0.3-0.1,0.5-0.4,0.6-0.8c0-0.3-0.1-0.7-0.4-0.9
		C11,10.8,10.5,9,10.5,8V5.5C10.5,4.5,12.3,3,14,3 M14,2c-2.2,0-4.5,1.8-4.5,3.5V8c0,1.1,0.5,3.3,1.9,4.4L7,14.5c0,0-1,0.4-1,1V17
		c0,0.6,0.4,1,1,1h14c0.6,0,1-0.4,1-1v-1.5c0-0.6-1-1-1-1l-4.4-2.1c1.4-1.1,1.9-3.2,1.9-4.4V5.5C18.5,3.8,16.2,2,14,2L14,2z"/>
	<path d="M4,15H1v-1c0-0.4,0.3-0.5,0.4-0.6l4.4-2.1c0.3-0.1,0.5-0.4,0.6-0.8c0-0.3-0.1-0.7-0.4-0.9C5,8.8,4.5,7,4.5,6V3.5
		C4.5,2.5,6.3,1,8,1c0.3,0,0.6,0.1,0.9,0.1C9.2,0.9,9.6,0.7,10,0.5C9.4,0.2,8.7,0,8,0C5.8,0,3.5,1.8,3.5,3.5V6
		c0,1.1,0.5,3.3,1.9,4.4L1,12.5c0,0-1,0.4-1,1V15c0,0.6,0.4,1,1,1h3L4,15z"/>
</g>
<g>
</g>
<g>
</g>
<g>
</g>
<g>
</g>
<g>
</g>
<g>
</g>
<g>
</g>
<g>
</g>
<g>
</g>
<g>
</g>
<g>
</g>
<g>
</g>
<g>
</g>
<g>
</g>
<g>
</g>
</svg>
