<?xml version="1.0" encoding="utf-8"?>
<!-- Generator: Adobe Illustrator 16.0.0, SVG Export Plug-In . SVG Version: 6.00 Build 0)  -->
<!DOCTYPE svg PUBLIC "-//W3C//DTD SVG 1.1//EN" "http://www.w3.org/Graphics/SVG/1.1/DTD/svg11.dtd">
<svg version="1.1" id="Layer_1" xmlns="http://www.w3.org/2000/svg" xmlns:xlink="http://www.w3.org/1999/xlink" x="0px" y="0px"
	 width="52px" height="60px" viewBox="0 0 52 60" enable-background="new 0 0 52 60" xml:space="preserve">
<path fill="none" stroke="#000000" stroke-width="3" stroke-miterlimit="10" d="M37.545,14.207c6.592,0,10.807,6.322,10.807,6.322
	s-6.43,3.458-6.43,10.968c0,8.917,8.078,11.51,8.078,11.51S43.624,58,36.465,58c-4.025,0-4.296-2.295-9.645-2.295
	c-4.647,0-6.214,2.295-9.753,2.295c-6.754,0-15.48-14.615-15.48-26.502c0-12.347,8.834-17.291,14.373-17.291
	c4.863,0,6.89,2.837,10.807,2.837C30.062,17.044,32.655,14.207,37.545,14.207z M36.41,1.617c0.973,6.052-4.565,13.535-11.185,13.292
	C24.253,7.209,31.386,2.023,36.41,1.617z"/>
</svg>
