<?xml version="1.0" encoding="utf-8"?>
<!-- Generator: Adobe Illustrator 18.1.1, SVG Export Plug-In . SVG Version: 6.00 Build 0)  -->
<svg version="1.1" id="Layer_1" xmlns="http://www.w3.org/2000/svg" xmlns:xlink="http://www.w3.org/1999/xlink" x="0px" y="0px" 
     width="32px" height="32px" viewBox="0 0 32 23" enable-background="new 0 0 32 23" xml:space="preserve">
<path d="M29.6,0.3C29.3,0.1,28.8,0,28.2,0H3.8c-0.6,0-1,0.1-1.4,0.3C1,0.8,0,2.2,0,3.8v15.3c0,1.6,1,3,2.3,3.5
	C2.7,22.9,3.1,23,3.8,23h24.5c0.6,0,1.1-0.1,1.4-0.3c1.4-0.6,2.3-1.9,2.3-3.5V3.8C32,2.2,31,0.8,29.6,0.3z M30,3.9v15.2
	c0,0.2-0.1,0.5-0.1,0.7c-0.1-0.1-0.3-0.3-0.4-0.4l-7.7-6.8l8-8.7c0.1-0.1,0.2-0.2,0.3-0.3C30,3.6,30,3.7,30,3.9z M28.1,2
	c0.2,0,0.3,0,0.5,0.1c0,0.1-0.1,0.2-0.3,0.4l-11.1,12c-0.7,0.7-1.8,0.7-2.5,0L3.7,2.5C3.5,2.3,3.4,2.1,3.4,2.1C3.6,2,3.7,2,3.9,2
	H28.1z M2.1,19.8C2.1,19.6,2,19.4,2,19.1V3.9c0-0.2,0-0.3,0.1-0.4c0.1,0.1,0.2,0.2,0.3,0.3l8,8.7l-7.7,6.8
	C2.4,19.5,2.3,19.7,2.1,19.8z M3.9,21c-0.1,0-0.2,0-0.3,0c0.1-0.1,0.1-0.1,0.2-0.2l7.8-7l1.8,2C14.1,16.6,15,17,16,17
	c1,0,1.9-0.4,2.6-1.2l1.8-2l7.8,7c0.1,0.1,0.1,0.1,0.2,0.2c-0.1,0-0.2,0-0.3,0H3.9z"/>
</svg>
