<?xml version="1.0" encoding="utf-8"?>
<!-- Generator: Adobe Illustrator 16.0.0, SVG Export Plug-In . SVG Version: 6.00 Build 0)  -->
<!DOCTYPE svg PUBLIC "-//W3C//DTD SVG 1.1//EN" "http://www.w3.org/Graphics/SVG/1.1/DTD/svg11.dtd">
<svg version="1.1" id="Layer_1" xmlns="http://www.w3.org/2000/svg" xmlns:xlink="http://www.w3.org/1999/xlink" x="0px" y="0px"
	 width="64px" height="64px" viewBox="0 0 64 64" enable-background="new 0 0 64 64" xml:space="preserve">
<path fill-rule="evenodd" clip-rule="evenodd" d="M63.445,6.375c0.009,0.354-0.115,0.71-0.386,0.981
	c-0.059,0.058-0.132,0.085-0.197,0.13l-3.693,3.694l0.948,0.947c0.064,0.045,0.139,0.073,0.196,0.13
	c0.271,0.271,0.396,0.627,0.387,0.981c0.009,0.354-0.116,0.711-0.387,0.981c-0.058,0.058-0.132,0.085-0.196,0.13L16.358,58.109
	c-0.004,0.004-0.009,0.004-0.013,0.008c-0.144,0.166-0.313,0.309-0.528,0.391L2.409,63.826c-0.08,0.043-0.163,0.072-0.252,0.1
	l-0.017,0.008c-0.011,0.004-0.021,0-0.033,0.004C1.979,63.973,1.851,64.002,1.714,64c-0.134,0.004-0.26-0.021-0.387-0.057
	c-0.027-0.008-0.056-0.002-0.083-0.012c-0.011-0.004-0.018-0.012-0.028-0.018c-0.12-0.045-0.226-0.113-0.329-0.193
	c-0.054-0.039-0.109-0.072-0.156-0.117c-0.045-0.047-0.078-0.102-0.117-0.156c-0.08-0.104-0.147-0.209-0.193-0.328
	c-0.005-0.012-0.014-0.018-0.018-0.029c-0.009-0.027-0.004-0.055-0.012-0.082c-0.036-0.127-0.06-0.254-0.057-0.389
	c-0.001-0.137,0.026-0.264,0.063-0.393c0.004-0.01,0.001-0.021,0.005-0.033l0.007-0.018c0.027-0.088,0.057-0.17,0.1-0.252
	l5.318-13.406c0.082-0.217,0.225-0.385,0.391-0.529c0.004-0.004,0.005-0.01,0.009-0.012L44.559,9.643
	c-0.363-1.146-1.422-1.981-2.688-1.981c-0.836,0-1.58,0.369-2.099,0.946L39.77,8.605l-4.462,4.462l0.003,0.004l-9.385,9.385
	c-0.523,0.524-1.372,0.524-1.896,0c-0.523-0.523-0.523-1.372,0-1.896L37.824,6.767c0.023-0.022,0.054-0.03,0.077-0.051
	c1.001-1.051,2.404-1.714,3.97-1.714c1.992,0,3.706,1.077,4.662,2.667l3.451-3.45c0.045-0.065,0.072-0.139,0.13-0.197
	c0.271-0.271,0.627-0.395,0.981-0.387c0.354-0.008,0.71,0.116,0.98,0.387c0.059,0.058,0.086,0.132,0.131,0.197l0.947,0.948
	l3.693-3.693c0.046-0.065,0.073-0.139,0.131-0.197c0.271-0.271,0.627-0.396,0.981-0.386c0.354-0.009,0.71,0.116,0.98,0.386
	c0.059,0.058,0.086,0.131,0.131,0.197l3.791,3.791c0.065,0.045,0.139,0.072,0.197,0.131C63.33,5.665,63.454,6.021,63.445,6.375z
	 M4.262,60.072l8.696-3.449l-5.247-5.246L4.262,60.072z M51.096,6.898L9.06,48.934l6.341,6.342l42.036-42.036L51.096,6.898z
	 M57.96,4.152l-2.909,2.91l2.223,2.222l2.909-2.909L57.96,4.152z"/>
</svg>
