<?xml version="1.0" encoding="utf-8"?>
<!-- Generator: Adobe Illustrator 16.0.0, SVG Export Plug-In . SVG Version: 6.00 Build 0)  -->
<!DOCTYPE svg PUBLIC "-//W3C//DTD SVG 1.1//EN" "http://www.w3.org/Graphics/SVG/1.1/DTD/svg11.dtd">
<svg version="1.1" id="Layer_1" xmlns="http://www.w3.org/2000/svg" xmlns:xlink="http://www.w3.org/1999/xlink" x="0px" y="0px"
	 width="70px" height="70px" viewBox="0 0 70 70" enable-background="new 0 0 70 70" xml:space="preserve">
<path fill-rule="evenodd" clip-rule="evenodd" fill="#FFFFFF" d="M34.521,0c19.066,0,34.521,15.456,34.521,34.521
	c0,19.065-15.455,34.521-34.521,34.521C15.456,69.042,0,53.586,0,34.521C0,15.456,15.456,0,34.521,0z"/>
<path fill-rule="evenodd" clip-rule="evenodd" d="M27.495,21.028h-0.883h-2.041c-0.288,0-0.522-0.234-0.522-0.522
	c0-0.288,0.234-0.521,0.522-0.521h2.041h0.883h1.041c0.289,0,0.522,0.233,0.522,0.521c0,0.289-0.234,0.522-0.522,0.522H27.495z
	 M28.046,47.532c0,0.834-0.675,1.509-1.509,1.509c-0.833,0-1.508-0.675-1.508-1.509c0-0.833,0.675-1.508,1.508-1.508
	C27.371,46.024,28.046,46.699,28.046,47.532z M19.05,22.031H34.04v23.004H19.05V22.031z M21.004,43.036h11.033V24.011H21.004V43.036
	z M50.667,44.028H37.036v5.621c0,1.311-1.063,2.375-2.375,2.375H18.412c-1.312,0-2.375-1.064-2.375-2.375v-4.617h1.989v3.389
	c0,0.873,0.709,1.582,1.583,1.582h13.854c0.875,0,1.583-0.709,1.583-1.582V20.563c0-0.875-0.708-1.583-1.583-1.583H19.61
	c-0.875,0-1.583,0.708-1.583,1.583v24.462h-1.989V19.396c0-1.311,1.063-2.374,2.375-2.374h16.249c1.312,0,2.375,1.063,2.375,2.374
	v5.589h13.631c1.31,0,2.375,1.065,2.375,2.375v14.296C53.042,42.964,51.977,44.028,50.667,44.028z M51.053,27.828
	c0-0.436-0.354-0.791-0.792-0.791H37.036v2.973h14.017V27.828z M51.053,32.037H37.036v3.982h3.504c0.267,0,0.483,0.222,0.483,0.494
	c0,0.274-0.217,0.495-0.483,0.495h-3.504v5h13.225c0.438,0,0.792-0.355,0.792-0.792V32.037z M48.54,37.009h-4.992
	c-0.268,0-0.484-0.221-0.484-0.495c0-0.272,0.217-0.494,0.484-0.494h4.992c0.267,0,0.483,0.222,0.483,0.494
	C49.023,36.788,48.807,37.009,48.54,37.009z"/>
</svg>
