<?xml version="1.0" encoding="utf-8"?>
<!-- Generator: Adobe Illustrator 16.0.0, SVG Export Plug-In . SVG Version: 6.00 Build 0)  -->
<!DOCTYPE svg PUBLIC "-//W3C//DTD SVG 1.1//EN" "http://www.w3.org/Graphics/SVG/1.1/DTD/svg11.dtd">
<svg version="1.1" id="Layer_1" xmlns="http://www.w3.org/2000/svg" xmlns:xlink="http://www.w3.org/1999/xlink" x="0px" y="0px"
	 width="54px" height="55px" viewBox="0 0 54 55" enable-background="new 0 0 54 55" xml:space="preserve">
<path fill-rule="evenodd" clip-rule="evenodd" fill="none" stroke="#000000" stroke-width="3" stroke-miterlimit="10" d="
	M4.696,3.893c2.026-2.031,8.147-2.369,8.194-1.295c0.047,1.073,5.516,12.984,5.563,14.058c0.047,1.074-3.605,4.735-4.674,5.807
	c-1.06,1.061,7.146,10.355,7.301,10.531c0.175,0.155,9.447,8.38,10.507,7.319c1.068-1.072,4.721-4.732,5.792-4.686
	s12.954,5.529,14.024,5.575c1.071,0.048,0.734,6.183-1.292,8.214c-1.731,1.736-10.702,8.038-26.3-3.217
	c-1.71-0.986-4.42-3.248-8.527-7.363c-0.003-0.002-0.005-0.004-0.008-0.006c-0.003-0.004-0.006-0.007-0.009-0.01
	c-0.003-0.004-0.006-0.006-0.01-0.01c-0.002-0.002-0.005-0.005-0.007-0.008c-4.105-4.117-6.361-6.833-7.346-8.547
	C-3.322,14.622,2.965,5.629,4.696,3.893z"/>
</svg>
