<?xml version="1.0" encoding="utf-8"?>
<!-- Generator: Adobe Illustrator 18.1.1, SVG Export Plug-In . SVG Version: 6.00 Build 0)  -->
<svg version="1.1" id="Layer_1" xmlns="http://www.w3.org/2000/svg" xmlns:xlink="http://www.w3.org/1999/xlink" x="0px" y="0px" 
     width="30px" height="30px" viewBox="0 0 30 30" enable-background="new 0 0 30 30" xml:space="preserve">
<path fill-rule="evenodd" clip-rule="evenodd" fill="none" stroke="#000000" stroke-width="2" stroke-miterlimit="10" d="M2.8,2
	c1.1-1.1,4.5-1.3,4.5-0.7c0,0.6,3.1,7.2,3.1,7.8s-2,2.6-2.6,3.2c-0.6,0.6,4,5.7,4,5.8c0.1,0.1,5.2,4.6,5.8,4.1
	c0.6-0.6,2.6-2.6,3.2-2.6c0.6,0,7.2,3.1,7.8,3.1c0.6,0,0.4,3.4-0.7,4.5c-1,1-5.9,4.5-14.6-1.8c-0.9-0.5-2.4-1.8-4.7-4.1c0,0,0,0,0,0
	c0,0,0,0,0,0c0,0,0,0,0,0c0,0,0,0,0,0c-2.3-2.3-3.5-3.8-4.1-4.7C-1.6,8,1.8,3,2.8,2z"/>
</svg>
