<?xml version="1.0" encoding="utf-8"?>
<!-- Generator: Adobe Illustrator 16.0.0, SVG Export Plug-In . SVG Version: 6.00 Build 0)  -->
<!DOCTYPE svg PUBLIC "-//W3C//DTD SVG 1.1//EN" "http://www.w3.org/Graphics/SVG/1.1/DTD/svg11.dtd">
<svg version="1.1" id="Layer_1" xmlns="http://www.w3.org/2000/svg" xmlns:xlink="http://www.w3.org/1999/xlink" x="0px" y="0px"
	 width="63px" height="55px" viewBox="0 0 63 55" enable-background="new 0 0 63 55" xml:space="preserve">
<path fill-rule="evenodd" clip-rule="evenodd" d="M62.525,21.966L49.237,51.588c-1.224,2.728-4.425,3.946-7.152,2.723L19.126,44.012
	H5.502c-3.027,0-5.48-2.454-5.48-5.48V5.484c0-3.026,2.453-5.48,5.48-5.48h32.964c3.026,0,5.48,2.454,5.48,5.48v2.217l15.855,7.113
	C62.529,16.037,63.748,19.238,62.525,21.966z M32.916,41.105c-0.155-0.48-0.307-3.238-0.475-3.487
	c-0.063-0.077-0.675-1.67-5.429-1.876c-2.184,0-3.7-0.641-3.7-2.857c0,0,0.025-2.933,0-2.74v-1.371l1.587-0.64
	c0.794-0.639,2.802-2.53,2.802-2.53l0.055-0.27c0.417-2.07,1.007-5.481,1.007-6.581c0-4.439-2.103-6.42-6.821-6.42
	c-4.717,0-6.821,1.98-6.821,6.42c0,1.194,0.618,4.668,1.008,6.576l0.055,0.336c0.448,0.451,1.699,1.652,2.813,2.422l1.575,0.686
	v1.371c-0.012-0.111,0,2.74,0,2.74c0,2.215-1.515,2.854-3.59,2.854c-0.001,0-0.002,0-0.004,0c-4.656,0.183-5.379,1.717-5.542,1.896
	c-0.146,0.217-0.308,2.988-0.465,3.471H32.916z M41.04,5.734c0-1.513-1.227-2.74-2.74-2.74H5.669c-1.513,0-2.74,1.227-2.74,2.74
	v32.631c0,1.513,1.227,2.74,2.74,2.74h2.305c0.479-0.883,0.732-4.314,1.221-5.051c0,0,0.853-2.792,7.576-3.053
	c0.685,0,1.027-0.43,1.027-1.086c0-0.529,0-0.949,0-0.949c0-0.133-0.021-0.252-0.029-0.381c-0.597-0.475-0.739-0.657-1.774-1.52
	c0,0-2.293-1.501-2.55-3.188c0,0-1.062-5.206-1.062-7.125c0-4.727,2.11-9.16,9.561-9.16c7.351,0,9.561,4.433,9.561,9.16
	c0,1.872-1.063,7.125-1.063,7.125c-0.214,1.597-2.55,3.188-2.55,3.188c-0.929,0.861-1.35,1.224-1.882,1.572
	c-0.004,0.111-0.024,0.213-0.024,0.328c0,0,0,0.42,0,0.949c0,0.656,0.342,1.086,1.027,1.086c6.823,0.293,7.678,3.053,7.678,3.053
	c0.49,0.736,0.743,4.168,1.222,5.051H38.3c1.514,0,2.74-1.228,2.74-2.74V5.734z M58.695,17.282l-14.748-6.616v27.865
	c0,3.026-2.454,5.48-5.48,5.48h-12.73l17.456,7.83c1.363,0.611,2.965,0.002,3.576-1.361l13.288-29.622
	C60.668,19.495,60.059,17.894,58.695,17.282z"/>
</svg>
