<?xml version="1.0" encoding="utf-8"?>
<!-- Generator: Adobe Illustrator 16.0.0, SVG Export Plug-In . SVG Version: 6.00 Build 0)  -->
<!DOCTYPE svg PUBLIC "-//W3C//DTD SVG 1.1//EN" "http://www.w3.org/Graphics/SVG/1.1/DTD/svg11.dtd">
<svg version="1.1" id="Layer_1" xmlns="http://www.w3.org/2000/svg" xmlns:xlink="http://www.w3.org/1999/xlink" x="0px" y="0px"
	 width="70px" height="70px" viewBox="0 0 70 70" enable-background="new 0 0 70 70" xml:space="preserve">
<path fill="#FFFFFF" d="M35,0.479c19.066,0,34.521,15.456,34.521,34.521c0,19.064-15.455,34.52-34.521,34.52
	c-19.065,0-34.521-15.455-34.521-34.52C0.479,15.936,15.935,0.479,35,0.479z"/>
<g>
	<path fill="none" stroke="#000000" stroke-width="2" stroke-miterlimit="10" d="M29.583,24.483l-1.363-6.632
		c0,0,3.478-1.362,6.812-1.362c3.132,0,6.308,1.362,6.308,1.362l-1.363,6.632H29.583z M37.351,24.464l5.021,20.939l-7.552,8.109
		l-7.551-7.371l4.922-21.678H37.351z"/>
	<path fill="none" stroke="#000000" stroke-miterlimit="10" d="M38.123,29.821l-8.646,4.611l-1.153,5.187l11.526-6.339l1.151,5.185
		l-12.678,7.492l2.882,3.457l11.525-6.338"/>
</g>
</svg>
