<?xml version="1.0" encoding="utf-8"?>
<!-- Generator: Adobe Illustrator 16.0.0, SVG Export Plug-In . SVG Version: 6.00 Build 0)  -->
<!DOCTYPE svg PUBLIC "-//W3C//DTD SVG 1.1//EN" "http://www.w3.org/Graphics/SVG/1.1/DTD/svg11.dtd">
<svg version="1.1" id="Layer_1" xmlns="http://www.w3.org/2000/svg" xmlns:xlink="http://www.w3.org/1999/xlink" x="0px" y="0px"
	 width="70.125px" height="70px" viewBox="0 0 70.125 70" enable-background="new 0 0 70.125 70" xml:space="preserve">
<path fill-rule="evenodd" clip-rule="evenodd" fill="#FFFFFF" d="M34.979,0.833c19.065,0,34.521,15.456,34.521,34.521
	c0,19.064-15.455,34.521-34.521,34.521S0.458,54.419,0.458,35.354C0.458,16.289,15.914,0.833,34.979,0.833z"/>
<path d="M43.157,28.647c-3.111,0-5.933,0.826-7.668,2.125v-8.125c0-3.116-4.095-5.556-9.457-5.556s-9.543,2.439-9.543,5.556
	c0-11.576,0,23.997,0,23.997c0,0.001,0,0.001,0,0.003c0,0.001,0,0.002,0,0.003v0.192h0.017c0.173,3.021,4.277,5.36,9.526,5.36h0.002
	l0.005-1.283l-0.008,2.132c0,0.003,0,0.005,0,0.008c0,0.002,0,0.004,0,0.007v0.188h0.016c0.174,3.021,4.299,5.361,9.547,5.361
	c5.31,0,9.473-2.394,9.557-5.464h0.007V51.64c4.319-0.516,7.259-2.674,7.331-5.345h0.008V34.203
	C52.496,31.087,48.521,28.647,43.157,28.647z M35.594,52.615c-4.346,0-7.396-1.781-7.549-3.429l0.002-0.249
	c0.01-0.124,0.037-0.249,0.078-0.374c1.74,1.257,4.414,2.052,7.469,2.052c3.058,0,5.735-0.796,7.475-2.057
	c0.055,0.158,0.089,0.326,0.089,0.5C43.157,50.741,40.051,52.615,35.594,52.615z M43.157,45.06c0,1.681-3.106,3.556-7.563,3.556
	c-4.238,0-7.248-1.694-7.535-3.305l0.002-0.251h-0.029c0-1.682,3.105-3.557,7.563-3.557S43.157,43.378,43.157,45.06z M26.032,42.203
	c-4.38,0-7.448-1.811-7.554-3.468l0.001-0.182c0.009-0.135,0.037-0.27,0.083-0.404c1.738,1.26,4.414,2.053,7.47,2.053
	s5.731-0.793,7.47-2.053c0.057,0.166,0.093,0.332,0.093,0.498c0,0.341-0.134,0.688-0.374,1.028
	c-2.462,0.354-4.515,1.245-5.787,2.459C26.982,42.176,26.518,42.203,26.032,42.203z M34.411,39.548
	c-0.03,0.003-0.06,0.006-0.089,0.008C34.352,39.554,34.381,39.551,34.411,39.548z M18.563,30.151
	c1.738,1.257,4.413,2.051,7.469,2.051s5.729-0.793,7.468-2.051c0.057,0.164,0.095,0.33,0.095,0.496c0,1.682-3.105,3.555-7.563,3.555
	c-4.305,0-7.34-1.747-7.544-3.382l0.001-0.349C18.502,30.364,18.526,30.257,18.563,30.151z M18.493,26.864l0.001-0.414
	c0.014-0.101,0.035-0.199,0.07-0.299c1.738,1.258,4.412,2.051,7.468,2.051c3.058,0,5.735-0.796,7.474-2.056
	c0.055,0.159,0.089,0.325,0.089,0.501c0,1.682-3.105,3.555-7.563,3.555C21.766,30.202,18.745,28.486,18.493,26.864z M18.561,34.148
	c1.738,1.259,4.415,2.055,7.472,2.055c3.056,0,5.729-0.795,7.469-2.052c0.056,0.164,0.094,0.33,0.094,0.495
	c0,1.683-3.105,3.557-7.563,3.557c-4.342,0-7.393-1.778-7.549-3.426l0.001-0.283C18.496,34.38,18.521,34.264,18.561,34.148z
	 M26.032,19.091c4.457,0,7.563,1.875,7.563,3.557s-3.105,3.555-7.563,3.555c-4.229,0-7.235-1.686-7.534-3.296l0.001-0.259h-0.03
	C18.469,20.966,21.575,19.091,26.032,19.091z M26.031,49.059c0,0.059,0.012,0.114,0.014,0.171l-0.003,0.974c-0.003,0-0.007,0-0.01,0
	c-4.455,0-7.56-1.872-7.563-3.554v-0.004c0.001-0.174,0.037-0.34,0.092-0.498c1.738,1.26,4.415,2.055,7.472,2.055
	c0.006,0,0.012,0,0.018,0l-0.003,0.721C26.045,48.969,26.031,49.014,26.031,49.059z M26.051,47.872l0.005-1.67
	c-0.008,0-0.016,0-0.023,0c-4.418,0-7.503-1.841-7.559-3.511l0.001-0.085c0.004-0.151,0.037-0.304,0.09-0.455
	c1.738,1.258,4.412,2.052,7.468,2.052c0.041,0,0.08-0.004,0.12-0.004c0-0.001,0.001-0.001,0.001-0.002
	c-0.072,0.281-0.122,0.566-0.122,0.862c0,0.111,0.018,0.223,0.027,0.333L26.051,47.872z M26.989,42.612L26.989,42.612L26.989,42.612
	z M26.624,43.115c0,0.001,0,0.001-0.001,0.002C26.624,43.116,26.624,43.116,26.624,43.115z M35.594,56.614
	c-4.453,0-7.555-1.868-7.563-3.549v-0.014c0.002-0.162,0.039-0.326,0.094-0.488c1.738,1.257,4.414,2.052,7.469,2.052
	c3.057,0,5.729-0.795,7.468-2.052c0.057,0.165,0.096,0.331,0.096,0.496C43.157,54.74,40.051,56.614,35.594,56.614z M45.157,49.622
	v-1.988c2.211-0.263,4.124-0.953,5.47-1.928c0.057,0.165,0.094,0.33,0.094,0.496C50.721,47.618,48.514,49.166,45.157,49.622z
	 M45.157,45.621V45.06c0-0.485-0.112-0.949-0.303-1.395c2.339-0.235,4.364-0.941,5.771-1.959c0.058,0.166,0.095,0.331,0.095,0.497
	C50.721,43.618,48.514,45.165,45.157,45.621z M43.316,41.754c-1.611-1.28-4.15-2.126-7.095-2.233
	c-0.343-0.372-0.561-0.762-0.607-1.148l0.001-0.326c0.012-0.113,0.036-0.227,0.074-0.339c1.74,1.257,4.413,2.051,7.468,2.051
	c3.06,0,5.735-0.795,7.475-2.055c0.055,0.157,0.089,0.325,0.089,0.5C50.721,39.864,47.687,41.708,43.316,41.754z M43.157,37.757
	c-4.234,0-7.243-1.689-7.534-3.301l0.001-0.253h-0.029c0-1.683,3.106-3.556,7.563-3.556c4.457,0,7.563,1.873,7.563,3.556
	C50.721,35.885,47.614,37.757,43.157,37.757z"/>
</svg>
