<?xml version="1.0" encoding="utf-8"?>
<!-- Generator: Adobe Illustrator 16.0.0, SVG Export Plug-In . SVG Version: 6.00 Build 0)  -->
<!DOCTYPE svg PUBLIC "-//W3C//DTD SVG 1.1//EN" "http://www.w3.org/Graphics/SVG/1.1/DTD/svg11.dtd">
<svg version="1.1" id="Layer_1" xmlns="http://www.w3.org/2000/svg" xmlns:xlink="http://www.w3.org/1999/xlink" x="0px" y="0px"
	 width="149px" height="149px" viewBox="0 0 149 149" enable-background="new 0 0 149 149" xml:space="preserve">
<path fill-rule="evenodd" clip-rule="evenodd" fill="#212121" d="M74.047,149C33.152,149,0,115.849,0,74.953
	S33.152,0.907,74.047,0.907c40.895,0,74.047,33.15,74.047,74.046S114.941,149,74.047,149z M74.088,6.887
	c-37.565,0-68.018,30.451-68.018,68.017s30.453,68.019,68.018,68.019c37.566,0,68.018-30.453,68.018-68.019
	S111.654,6.887,74.088,6.887z M74.097,140.907c-36.448,0-65.995-29.548-65.995-65.996c0-36.447,29.546-65.993,65.995-65.993
	c36.447,0,65.994,29.546,65.994,65.993C140.091,111.359,110.544,140.907,74.097,140.907z"/>
</svg>
