<?xml version="1.0" encoding="utf-8"?>
<!-- Generator: Adobe Illustrator 16.0.0, SVG Export Plug-In . SVG Version: 6.00 Build 0)  -->
<!DOCTYPE svg PUBLIC "-//W3C//DTD SVG 1.1//EN" "http://www.w3.org/Graphics/SVG/1.1/DTD/svg11.dtd">
<svg version="1.1" id="Layer_1" xmlns="http://www.w3.org/2000/svg" xmlns:xlink="http://www.w3.org/1999/xlink" x="0px" y="0px"
	 width="31px" height="31px" viewBox="0 0 31 31" enable-background="new 0 0 31 31" xml:space="preserve">
<path fill-rule="evenodd" clip-rule="evenodd" fill="#CCCCCC" d="M15.5,31C6.939,31,0,24.062,0,15.501c0-8.562,6.939-15.5,15.5-15.5
	S31,6.939,31,15.501C31,24.062,24.061,31,15.5,31z M15.477,2.032c-7.451,0-13.492,6.041-13.492,13.492
	c0,7.453,6.041,13.493,13.492,13.493c7.452,0,13.492-6.04,13.492-13.493C28.969,8.073,22.929,2.032,15.477,2.032z M19.178,13.128
	l-0.416,2.735h-2.279c0,3.473,0,7.388,0,7.388h-2.685c0,0,0-3.874,0-7.388h-1.977v-2.735h1.977V11c0-1.27,0.622-3.25,3.346-3.25
	l1.996,0.01v2.656c0,0-1.452,0-1.742,0c-0.291,0-0.915,0.14-0.915,0.744v1.968H19.178z"/>
</svg>
