<?xml version="1.0" encoding="utf-8"?>
<!-- Generator: Adobe Illustrator 18.0.0, SVG Export Plug-In . SVG Version: 6.00 Build 0)  -->
<!DOCTYPE svg PUBLIC "-//W3C//DTD SVG 1.1//EN" "http://www.w3.org/Graphics/SVG/1.1/DTD/svg11.dtd">
<svg version="1.1" id="Layer_1" xmlns="http://www.w3.org/2000/svg" xmlns:xlink="http://www.w3.org/1999/xlink" x="0px" y="0px"
	 viewBox="0 0 377.8 210.2" enable-background="new 0 0 377.8 210.2" xml:space="preserve">
<g>
	<g>
		<path fill="#8E394F" d="M98.8,31.2c-6.1,0-11-4.9-11-11c0-0.6,0.4-1,1-1s1,0.4,1,1c0,5,4,9,9,9c0.6,0,1,0.4,1,1
			S99.3,31.2,98.8,31.2z"/>
	</g>
	<path fill="#8E394F" d="M375.5,202.2l2.1-2.9c0.2-0.3,0.3-0.7,0.1-1.1c-0.2-0.3-0.6-0.5-1-0.5l-3.5,0.4l-1.4-3.3
		c-0.2-0.4-0.5-0.6-0.9-0.6s-0.8,0.2-0.9,0.6l-1.4,3.3l-3.5-0.4c-0.4,0-0.8,0.1-1,0.5c-0.2,0.3-0.2,0.8,0.1,1.1l1.4,2
		c-136.3,0.2-207.3-36.7-231.6-75.8c16.1-4.9,29-11.9,34.7-18.7c7.4-8.7,11.4-21.8,0.8-32.7c-8.6-8.8-24.9-11.8-37.2-1.8
		c-10,8.2-12.6,24.2-6.5,40.8c1.1,3.1,2.8,6.8,5.2,11c-12.5,3.6-26.7,5.9-40.8,5.9c-21.2,0-50.7-5.1-71.4-29.6
		c-19.3-22.8-18.2-43-13.9-56C11.9,22.5,32.5,7,49,3.2c14.7-3.4,31.2,1.3,36.7,6.2l-3.3,3.3c-0.4,0.4-0.5,0.8-0.5,1.3
		c0,0.5,0.2,1,0.5,1.3l0.9,0.9c-0.3,1.2-0.5,2.5-0.5,3.9c0,8.8,7.2,16,16,16s16-7.2,16-16s-7.2-16-16-16c-1.9,0-3.7,0.4-5.4,1
		l-0.4-0.4c-0.7-0.7-1.9-0.7-2.6,0L87.1,8C81.2,2.6,64.1-2.4,48.5,1.2c-17.1,4-38.3,19.9-45.8,42.7C-1.8,57.4-2.9,78.4,17,101.9
		c21.2,25.1,51.4,30.3,73,30.3c14.6,0,29.2-2.4,41.9-6.1c8.7,14.1,26.1,32.5,60.8,48.1c43,19.3,100.5,29.1,171.3,29.1
		c0.5,0,0.9,0,1.4,0l-1.3,1.9c-0.2,0.3-0.3,0.7-0.1,1.1c0.2,0.3,0.6,0.5,1,0.5l3.5-0.4l1.4,3.3c0.2,0.4,0.5,0.6,0.9,0.6
		s0.8-0.2,0.9-0.6l1.4-3.3l3.5,0.4c0.4,0,0.8-0.1,1-0.5c0.2-0.3,0.2-0.8-0.1-1.1L375.5,202.2z M94.5,7.6l0.5-0.7l-0.2-0.2
		c1.2-0.4,2.5-0.5,3.8-0.5c7.7,0,14,6.3,14,14s-6.3,14-14,14s-14-6.3-14-14c0-1.1,0.1-2.2,0.4-3.2l0,0c0.1-0.1,2.7-2.1,5-4.4
		S94.5,7.7,94.5,7.6z M91.6,6.3l0.8,0.8c-0.7,0.9-2.1,2.6-3.7,4.1c-1.5,1.5-3.2,2.9-4.1,3.7l-0.8-0.8L91.6,6.3z M127.5,112.6
		c-5.7-15.8-3.4-30.9,5.9-38.6c5-4.1,10.7-5.8,16.2-5.8c7.1,0,13.8,2.9,18.3,7.5c6.4,6.5,9.5,17.7-0.9,30
		c-5.4,6.4-18.3,13.3-34.3,18.1C130.5,120,128.8,116.3,127.5,112.6z M372.6,204.3c-0.4,0-0.9,0.2-1,0.6l-0.8,1.9l-0.8-1.9
		c-0.2-0.4-0.5-0.6-0.9-0.6c0,0-0.1,0-0.1,0l-2,0.2l1.2-1.7c0.3-0.4,0.3-0.8,0-1.2l-1.2-1.7l2,0.2c0.4,0,0.9-0.2,1-0.6l0.8-1.9
		l0.8,1.9c0.2,0.4,0.6,0.6,1,0.6l2-0.2l-1.2,1.7c-0.3,0.4-0.3,0.8,0,1.2l1.2,1.7L372.6,204.3z"/>
</g>
<g>
</g>
<g>
</g>
<g>
</g>
<g>
</g>
<g>
</g>
<g>
</g>
<g>
</g>
<g>
</g>
<g>
</g>
<g>
</g>
<g>
</g>
<g>
</g>
<g>
</g>
<g>
</g>
<g>
</g>
</svg>
