<?xml version="1.0" encoding="utf-8"?>
<!-- Generator: Adobe Illustrator 18.0.0, SVG Export Plug-In . SVG Version: 6.00 Build 0)  -->
<!DOCTYPE svg PUBLIC "-//W3C//DTD SVG 1.1//EN" "http://www.w3.org/Graphics/SVG/1.1/DTD/svg11.dtd">
<svg version="1.1" id="Layer_1" xmlns="http://www.w3.org/2000/svg" xmlns:xlink="http://www.w3.org/1999/xlink" x="0px" y="0px"
	 viewBox="0 0 19 16" enable-background="new 0 0 19 16" xml:space="preserve">
<path d="M16.3,1.2L16.3,1.2L16.3,1.2L15.6,0H3.3L0,6l9.5,10L19,6L16.3,1.2z M18,6h-4l1.8-3.8L18,6z M6.3,7h6.4l-3.2,6.7L6.3,7z
	 M8.8,13.8L2,7h3.5L8.8,13.8z M5.9,6l3.6-4.4L13.1,6H5.9z M13.5,7H17l-6.8,6.8L13.5,7z M15.4,1.5l-1.9,3.9L9.9,1h5.1L15.4,1.5z
	 M9.1,1L5.5,5.4l-1.9-4L3.9,1H9.1z M3.2,2.2L5,6H1L3.2,2.2z M9.5,14.5L9.5,14.5L9.5,14.5L9.5,14.5L9.5,14.5z"/>
<g>
</g>
<g>
</g>
<g>
</g>
<g>
</g>
<g>
</g>
<g>
</g>
<g>
</g>
<g>
</g>
<g>
</g>
<g>
</g>
<g>
</g>
<g>
</g>
<g>
</g>
<g>
</g>
<g>
</g>
</svg>
