<?xml version="1.0" encoding="utf-8"?>
<!-- Generator: Adobe Illustrator 18.0.0, SVG Export Plug-In . SVG Version: 6.00 Build 0)  -->
<!DOCTYPE svg PUBLIC "-//W3C//DTD SVG 1.1//EN" "http://www.w3.org/Graphics/SVG/1.1/DTD/svg11.dtd">
<svg version="1.1" id="Layer_1" xmlns="http://www.w3.org/2000/svg" xmlns:xlink="http://www.w3.org/1999/xlink" x="0px" y="0px"
	 viewBox="0 0 16 16" enable-background="new 0 0 16 16" xml:space="preserve">
<g>
	<path d="M15,6.5l-1.3-0.3c-0.1-0.3-0.2-0.6-0.4-0.9L14,4.1c0.3-0.4,0.4-1,0-1.4L13.3,2c-0.4-0.4-1-0.3-1.4,0l-1.1,0.7
		c-0.3-0.2-0.6-0.3-0.9-0.4L9.6,1C9.5,0.5,9.1,0,8.5,0h-1c-0.6,0-0.9,0.5-1,1L6.2,2.3c-0.3,0.1-0.7,0.2-1,0.4L4.1,2
		C3.7,1.7,3,1.6,2.6,2L1.9,2.7c-0.4,0.4-0.3,1,0,1.4l0.7,1.2C2.5,5.6,2.4,5.9,2.3,6.2L1,6.5C0.5,6.6,0,7,0,7.5v1c0,0.6,0.5,0.9,1,1
		l1.3,0.3c0.1,0.3,0.2,0.5,0.3,0.8l-0.7,1.2c-0.3,0.4-0.4,1,0,1.4L2.6,14c0.4,0.4,1,0.3,1.4,0l1.2-0.7c0.3,0.2,0.6,0.3,1,0.4L6.5,15
		c0.1,0.5,0.4,1,1,1h1c0.6,0,1-0.5,1.1-1l0.3-1.3c0.3-0.1,0.6-0.2,0.9-0.4l1.1,0.7c0.4,0.3,1.1,0.3,1.4,0l0.7-0.7
		c0.4-0.4,0.3-1,0-1.4l-0.7-1.2c0.1-0.3,0.3-0.6,0.4-0.9L15,9.5c0.5-0.1,1-0.4,1-1v-1C16,7,15.5,6.6,15,6.5z M15,8.5
		c0,0-0.1,0.1-0.2,0.1L12.9,9l-0.2,0.5c-0.1,0.2-0.2,0.5-0.3,0.7l-0.3,0.5l1,1.6c0.1,0.1,0.1,0.2,0.1,0.2l-0.7,0.7
		c-0.1,0-0.1,0-0.2-0.1l-1.6-1l-0.5,0.3c-0.2,0.1-0.5,0.2-0.8,0.3L9,12.9l-0.4,1.9c0,0.1-0.1,0.2-0.1,0.2H7.6c0,0-0.1-0.1-0.1-0.2
		L7,12.9l-0.5-0.2c-0.3-0.1-0.5-0.2-0.8-0.3l-0.5-0.3l-1.6,1c-0.1,0-0.1,0.1-0.2,0.1l-0.7-0.6c0-0.1,0-0.1,0.1-0.2l1-1.7l-0.2-0.5
		C3.4,10,3.3,9.8,3.2,9.6L3.1,9L1.2,8.6C1.1,8.5,1,8.5,1,8.5V7.5l0,0c0,0,0.1-0.1,0.2-0.1l1.9-0.4l0.2-0.6C3.3,6.3,3.4,6,3.5,5.8
		l0.2-0.5l-1-1.7C2.7,3.5,2.7,3.4,2.7,3.4l0.7-0.7c0.1,0,0.1,0,0.2,0.1l1.7,1.1l0.5-0.3c0.3-0.1,0.5-0.3,0.8-0.3L7,3.1l0.5-1.8
		C7.5,1.1,7.5,1,7.6,1h0.9c0,0,0.1,0.1,0.1,0.2L9,3.1l0.5,0.2c0.3,0.1,0.5,0.2,0.8,0.3l0.5,0.3l1.6-1c0.1,0,0.1-0.1,0.2-0.1l0.7,0.6
		c0,0.1,0,0.1-0.1,0.2l-1,1.6l0.3,0.5c0.1,0.3,0.2,0.5,0.3,0.8l0.2,0.6l1.8,0.4c0.1,0,0.2,0.1,0.2,0.1L15,8.5z"/>
	<path d="M8,11c-1.7,0-3-1.3-3-3c0-1.7,1.4-3,3-3s3,1.3,3,3C11,9.7,9.7,11,8,11z M8,6C6.9,6,6,6.9,6,8c0,1.1,0.9,2,2,2
		c1.1,0,2-0.9,2-2C10,6.9,9.1,6,8,6z"/>
</g>
<g>
</g>
<g>
</g>
<g>
</g>
<g>
</g>
<g>
</g>
<g>
</g>
<g>
</g>
<g>
</g>
<g>
</g>
<g>
</g>
<g>
</g>
<g>
</g>
<g>
</g>
<g>
</g>
<g>
</g>
</svg>
