<?xml version="1.0" encoding="utf-8"?>
<!-- Generator: Adobe Illustrator 18.0.0, SVG Export Plug-In . SVG Version: 6.00 Build 0)  -->
<!DOCTYPE svg PUBLIC "-//W3C//DTD SVG 1.1//EN" "http://www.w3.org/Graphics/SVG/1.1/DTD/svg11.dtd">
<svg version="1.1" id="Layer_1" xmlns="http://www.w3.org/2000/svg" xmlns:xlink="http://www.w3.org/1999/xlink" x="0px" y="0px"
	 viewBox="0 0 24 17" enable-background="new 0 0 24 17" xml:space="preserve">
<g>
	<path d="M24,8.3l-3.1-8C20.8,0.1,20.6,0,20.4,0H3.6C3.4,0,3.2,0.1,3.1,0.3L0,8.3C0,8.5,0,8.6,0.1,8.8S0.3,9,0.5,9h23
		c0.2,0,0.3-0.1,0.4-0.2S24,8.5,24,8.3z M1.2,8l1.2-3h7.1c0.3,0,0.5-0.2,0.5-0.5S9.7,4,9.5,4H2.8l1.2-3h16.2l2.7,7H1.2z"/>
	<g>
		<path d="M12,17c-5.4,0-6.6-1.8-6.7-2c-0.1-0.1-0.1-0.2-0.1-0.4l1.6-6.2C6.8,8.2,7,8,7.3,8h9.5c0.2,0,0.4,0.2,0.5,0.4l1.6,6.2
			c0,0.1,0,0.3-0.1,0.4C18.6,15.2,17.4,17,12,17z M6.2,14.6C6.6,14.9,8.1,16,12,16c3.9,0,5.4-1,5.8-1.4L16.3,9H7.7L6.2,14.6z"/>
	</g>
	<g>
		<path d="M1.5,14.1c-0.3,0-0.5-0.2-0.5-0.5v-2.9c0-0.3,0.2-0.5,0.5-0.5S2,10.4,2,10.6v2.9C2,13.8,1.8,14.1,1.5,14.1z"/>
	</g>
	<g>
		<path d="M2.5,17C2.5,17,2.5,17,2.5,17H0.5c-0.1,0-0.3-0.1-0.3-0.2C0,16.7,0,16.6,0,16.4l0.4-2.9c0-0.2,0.2-0.4,0.5-0.4h1.2
			c0.2,0,0.4,0.2,0.5,0.4L3,16.3c0,0.1,0,0.1,0,0.2C3,16.8,2.8,17,2.5,17z M1,16h1l-0.3-1.9H1.3L1,16z"/>
	</g>
</g>
<g>
</g>
<g>
</g>
<g>
</g>
<g>
</g>
<g>
</g>
<g>
</g>
<g>
</g>
<g>
</g>
<g>
</g>
<g>
</g>
<g>
</g>
<g>
</g>
<g>
</g>
<g>
</g>
<g>
</g>
</svg>
