<?xml version="1.0" encoding="utf-8"?>
<!-- Generator: Adobe Illustrator 18.0.0, SVG Export Plug-In . SVG Version: 6.00 Build 0)  -->
<!DOCTYPE svg PUBLIC "-//W3C//DTD SVG 1.1//EN" "http://www.w3.org/Graphics/SVG/1.1/DTD/svg11.dtd">
<svg version="1.1" id="Layer_1" xmlns="http://www.w3.org/2000/svg" xmlns:xlink="http://www.w3.org/1999/xlink" x="0px" y="0px"
	 viewBox="0 0 41.8 42.3" enable-background="new 0 0 41.8 42.3" xml:space="preserve">
<g>
	<path fill="#8E394F" d="M41.3,0.7c-0.4-0.5-1.1-0.7-1.8-0.6l-2.3,0.3c-3,0.4-5.8,1.8-8.1,3.8l0,0l-0.5,0.5l-0.9,0.9L16,17.3L7.2,19
		c-0.6,0.1-1.1,0.6-1.3,1.1c-0.2,0.6,0,1.2,0.4,1.7l2.6,2.6l1.4,1.4l5.9,5.9l1.4,1.4l2.6,2.6c0.3,0.3,0.7,0.5,1.2,0.5
		c0.8,0,1.5-0.6,1.6-1.4l1.6-8.8l11.8-11.8l0.7-0.7l0.7-0.7l0,0c2-2.3,3.4-5.3,3.7-8.4l0.2-2.2C41.9,1.7,41.7,1.1,41.3,0.7z
		 M8.2,20.8l5.3-1L10.3,23L8.2,20.8z M22.2,28.6l-1,5.3L19,31.7L22.2,28.6z M25.3,22.6L25.3,22.6l-7.7,7.7l-5.9-5.9L29.2,7l5.9,5.9
		L25.3,22.6z M39.6,4.2c-0.3,2.6-1.4,5.2-3.1,7.2l-5.8-5.8c1.9-1.7,4.4-2.9,6.9-3.2L39.8,2L39.6,4.2z"/>
	<path fill="#8E394F" d="M14.6,33.4l-0.3,0.3c-3.2,3.2-7.5,5.5-12,6.3c0.8-4.7,3-9.1,6.4-12.5c0.4-0.4,0.4-1,0-1.4s-1-0.4-1.4,0
		c-4,4-6.5,9.2-7.1,14.8L0,42.3l1.7-0.2c5.3-0.8,10.2-3.2,14-7l0.3-0.3c0.4-0.4,0.4-1,0-1.4C15.6,33,15,33,14.6,33.4z"/>
</g>
<g>
</g>
<g>
</g>
<g>
</g>
<g>
</g>
<g>
</g>
<g>
</g>
<g>
</g>
<g>
</g>
<g>
</g>
<g>
</g>
<g>
</g>
<g>
</g>
<g>
</g>
<g>
</g>
<g>
</g>
</svg>
