<?xml version="1.0" encoding="utf-8"?>
<!-- Generator: Adobe Illustrator 18.0.0, SVG Export Plug-In . SVG Version: 6.00 Build 0)  -->
<!DOCTYPE svg PUBLIC "-//W3C//DTD SVG 1.1//EN" "http://www.w3.org/Graphics/SVG/1.1/DTD/svg11.dtd">
<svg version="1.1" id="Layer_1" xmlns="http://www.w3.org/2000/svg" xmlns:xlink="http://www.w3.org/1999/xlink" x="0px" y="0px"
	 viewBox="0 0 82 82" enable-background="new 0 0 82 82" xml:space="preserve">
<g opacity="0.4">
	<path fill="#8E394F" d="M41,0C18.4,0,0,18.4,0,41s18.4,41,41,41s41-18.4,41-41S63.6,0,41,0z M41,80C19.5,80,2,62.5,2,41
		S19.5,2,41,2s39,17.5,39,39S62.5,80,41,80z"/>
	<path fill="#8E394F" d="M54.3,44.3L42,56.6V21c0-0.6-0.4-1-1-1s-1,0.4-1,1v35.6L27.7,44.3c-0.4-0.4-1-0.4-1.4,0s-0.4,1,0,1.4
		L41,60.4l0.7-0.7c0,0,0,0,0,0l14-14c0.4-0.4,0.4-1,0-1.4S54.7,43.9,54.3,44.3z"/>
</g>
<g>
</g>
<g>
</g>
<g>
</g>
<g>
</g>
<g>
</g>
<g>
</g>
<g>
</g>
<g>
</g>
<g>
</g>
<g>
</g>
<g>
</g>
<g>
</g>
<g>
</g>
<g>
</g>
<g>
</g>
</svg>
