<?xml version="1.0" encoding="utf-8"?>
<!-- Generator: Adobe Illustrator 16.0.0, SVG Export Plug-In . SVG Version: 6.00 Build 0)  -->
<!DOCTYPE svg PUBLIC "-//W3C//DTD SVG 1.1//EN" "http://www.w3.org/Graphics/SVG/1.1/DTD/svg11.dtd">
<svg version="1.1" id="Layer_1" xmlns="http://www.w3.org/2000/svg" xmlns:xlink="http://www.w3.org/1999/xlink" x="0px" y="0px"
	 width="70px" height="70px" viewBox="0 0 70 70" enable-background="new 0 0 70 70" xml:space="preserve">
<path fill-rule="evenodd" clip-rule="evenodd" fill="#FFFFFF" d="M34.521,0.958c19.065,0,34.521,15.456,34.521,34.521
	C69.041,54.544,53.586,70,34.521,70C15.456,70,0,54.544,0,35.479C0,16.414,15.456,0.958,34.521,0.958z"/>
<path fill-rule="evenodd" clip-rule="evenodd" d="M36.007,21.148c-2.028-2.107-3.658-3.737-6.084-4.096l8.987-0.08
	c4.254,0,7.236,1.869,10.338,5.09l5.725,5.926l-6.32,6.083L36.007,21.148z M52.041,27.729c-0.383-0.639-8.594-7.906-9.656-8.406
	s-5.281-0.406-5.281-0.406c-0.218,0.469,11.625,12.219,11.625,12.219S52.135,27.886,52.041,27.729z M31.514,20.592l11.492,11.571
	l-1.91,1.908l-8.866-8.827c-0.875-0.914-2.028-1.272-3.181-0.12l-8.867,9.266l-6.322-6.401l7.396-7.595
	C24.237,17.331,28.532,17.569,31.514,20.592z M30.625,22.347c-0.681-0.773-2.499-2.554-4.646-2.305
	c-2.969,0.344-9.063,7.844-9.063,7.844l3.563,3.5C27.749,23.299,29.955,22.229,30.625,22.347c0.186,0.211,0.292,0.352,0.292,0.352
	S30.928,22.4,30.625,22.347z M32.826,49.778c2.028,2.066,3.658,3.697,6.084,4.095l-8.947,0.039c-4.294,0-7.276-1.869-10.378-5.088
	l-5.726-5.926l6.322-6.084L32.826,49.778z M26.698,51.636c1.063,0.5,5.281,0.406,5.281,0.406
	c0.219-0.469-11.625-12.219-11.625-12.219s-3.406,3.25-3.313,3.406C17.425,43.869,25.635,51.136,26.698,51.636z M37.318,50.335
	L25.828,38.764l1.909-1.949l8.868,8.867c0.875,0.876,2.066,1.272,3.181,0.08l8.867-9.265l6.32,6.401l-7.395,7.595
	C44.596,53.556,40.301,53.356,37.318,50.335z M38.457,48.612c0.682,0.774,2.5,2.554,4.646,2.305
	c2.969-0.344,9.063-7.844,9.063-7.844l-3.563-3.5C41.334,47.66,39.127,48.73,38.457,48.612c-0.186-0.211-0.291-0.352-0.291-0.352
	S38.154,48.559,38.457,48.612z"/>
</svg>
