<?xml version="1.0" encoding="utf-8"?>
<!-- Generator: Adobe Illustrator 16.0.0, SVG Export Plug-In . SVG Version: 6.00 Build 0)  -->
<!DOCTYPE svg PUBLIC "-//W3C//DTD SVG 1.1//EN" "http://www.w3.org/Graphics/SVG/1.1/DTD/svg11.dtd">
<svg version="1.1" id="Layer_1" xmlns="http://www.w3.org/2000/svg" xmlns:xlink="http://www.w3.org/1999/xlink" x="0px" y="0px"
	 width="70px" height="70px" viewBox="0 0 70 70" enable-background="new 0 0 70 70" xml:space="preserve">
<path fill-rule="evenodd" clip-rule="evenodd" fill="#FFFFFF" d="M34.52,0.958c19.066,0,34.521,15.456,34.521,34.521
	C69.041,54.544,53.586,70,34.52,70C15.456,70,0,54.544,0,35.479C0,16.414,15.456,0.958,34.52,0.958z"/>
<path fill-rule="evenodd" clip-rule="evenodd" d="M52.623,28.948c-0.006,0-0.018,0-0.029,0h-35.14c-0.642,0-1.203-0.446-1.37-1.091
	c-0.167-0.644,0.101-1.382,0.654-1.719L34.25,15.805c0.441-0.268,0.99-0.268,1.432,0l17.473,10.24
	c0.521,0.219,0.887,0.808,0.887,1.428C54.041,28.288,53.406,28.948,52.623,28.948z M35.041,17.948L19.09,26.977l31.808,0.006
	L35.041,17.948z M35.049,19.979c1.652,0,2.992,1.34,2.992,2.992s-1.34,2.992-2.992,2.992s-2.992-1.34-2.992-2.992
	S33.396,19.979,35.049,19.979z M35.063,24.013c0.561,0,1.016-0.455,1.016-1.017s-0.455-1.017-1.016-1.017
	c-0.563,0-1.018,0.455-1.018,1.017S34.5,24.013,35.063,24.013z M19.034,45.948V33.966c-0.623-0.168-1-0.696-1-1.424v-1.594h2.594
	h1.813h2.562v1.594c0,0.656-0.4,1.169-0.969,1.387v12.02H19.034z M22.042,32.979h-1v11h1V32.979z M28.034,45.948V33.966
	c-0.623-0.168-1-0.696-1-1.424v-1.594h2.594h1.813h2.562v1.594c0,0.656-0.4,1.169-0.969,1.387v12.02H28.034z M31.042,32.979h-1v11h1
	V32.979z M37.033,45.948V33.966c-0.621-0.168-1-0.696-1-1.424v-1.594h2.594h1.813h2.563v1.594c0,0.656-0.4,1.169-0.969,1.387v12.02
	H37.033z M40.041,32.979h-1v11h1V32.979z M46.033,45.948V33.966c-0.621-0.168-1-0.696-1-1.424v-1.594h2.594h1.813h2.563v1.594
	c0,0.656-0.4,1.169-0.969,1.387v12.02H46.033z M49.041,32.979h-1v11h1V32.979z M17.628,50.979h1.406v-2.999h31.999
	c0,0,0,2.602,0,2.999h1.406c0.877,0,1.594,0.717,1.594,1.594v1.813c0,0.879-1.717,1.595-2.594,1.595H17.628
	c-0.878,0-1.594-0.716-1.594-1.595v-1.813C16.034,51.695,16.75,50.979,17.628,50.979z M21.042,53.977v0.003h28v-0.003l3.031-0.028
	c0,0-0.988-0.457-1.764-1.202c-0.602-0.576-1.076-1.317-1.268-1.638v-1.129h-28v1.129c-0.192,0.32-0.667,1.062-1.268,1.638
	c-0.775,0.745-1.764,1.202-1.764,1.202L21.042,53.977z"/>
</svg>
