<?xml version="1.0" encoding="utf-8"?>
<!-- Generator: Adobe Illustrator 16.0.0, SVG Export Plug-In . SVG Version: 6.00 Build 0)  -->
<!DOCTYPE svg PUBLIC "-//W3C//DTD SVG 1.1//EN" "http://www.w3.org/Graphics/SVG/1.1/DTD/svg11.dtd">
<svg version="1.1" id="Layer_1" xmlns="http://www.w3.org/2000/svg" xmlns:xlink="http://www.w3.org/1999/xlink" x="0px" y="0px"
	 width="504px" height="57px" viewBox="0 0 504 57" enable-background="new 0 0 504 57" xml:space="preserve">
<path fill-rule="evenodd" clip-rule="evenodd" fill="#FFFFFF" d="M503.722,43.719h-4.686l-10.099-15.055l-2.911,3.366v11.689h-3.958
	V13.06h3.958v14.785h0.137c0.818-1.183,1.638-2.274,2.41-3.275l9.371-11.509h4.913l-11.1,13.01L503.722,43.719z M447.309,28.163
	c-2.139-3.412-4.186-6.916-5.732-10.235l-0.136,0.045c0.228,3.867,0.318,7.551,0.318,12.646v13.1h-3.73V13.06h4.322l9.826,15.513
	c2.274,3.594,4.048,6.823,5.503,9.962l0.092-0.046c-0.364-4.094-0.455-7.824-0.455-12.601V13.06h3.729v30.659h-4.003L447.309,28.163
	z M411.957,34.076h-10.872l-3.185,9.643h-4.094l10.417-30.659H409l10.463,30.659h-4.23L411.957,34.076z M408.136,22.158
	c-0.683-2.001-1.138-3.821-1.593-5.595h-0.09c-0.455,1.82-0.956,3.685-1.547,5.55l-3.003,8.87h9.234L408.136,22.158z
	 M376.696,34.986c0,2.639-1.047,4.64-2.594,6.14c-2.138,1.958-5.595,2.866-10.599,2.866c-2.729,0-4.822-0.182-6.142-0.362V13.469
	c1.729-0.363,4.458-0.637,7.233-0.637c3.957,0,6.505,0.683,8.415,2.229c1.593,1.184,2.548,3.002,2.548,5.413
	c0,2.957-1.956,5.55-5.186,6.733v0.091C373.285,28.026,376.696,30.438,376.696,34.986z M371.556,20.884
	c0-3.594-2.729-5.004-6.732-5.004c-1.819,0-2.866,0.137-3.503,0.273v9.872h3.594C369.1,26.024,371.556,23.841,371.556,20.884z
	 M364.596,29.026h-3.275v11.691c0.773,0.136,1.911,0.182,3.321,0.182c4.094,0,7.869-1.501,7.869-5.959
	C372.511,30.755,368.917,29.026,364.596,29.026z M320.875,13.06h16.559v3.321h-12.601v9.689h11.918v3.275h-11.918v11.054h13.282
	v3.32h-17.24V13.06z M296.03,30.255c-0.228-4.275-0.5-9.417-0.455-13.237h-0.136c-1.047,3.593-2.32,7.414-3.867,11.646
	l-5.413,14.874h-3.002l-4.958-14.602c-1.457-4.321-2.685-8.279-3.549-11.917h-0.092c-0.09,3.82-0.317,8.961-0.59,13.555
	l-0.819,13.146h-3.775l2.138-30.659h5.049l5.232,14.83c1.272,3.775,2.319,7.142,3.093,10.325h0.136
	c0.774-3.092,1.865-6.459,3.23-10.325l5.459-14.83h5.049l1.911,30.659h-3.867L296.03,30.255z M244.257,34.076h-10.872l-3.184,9.643
	h-4.094l10.417-30.659h4.777l10.462,30.659h-4.23L244.257,34.076z M240.436,22.158c-0.682-2.001-1.137-3.821-1.592-5.595h-0.091
	c-0.455,1.82-0.955,3.685-1.546,5.55l-3.003,8.87h9.235L240.436,22.158z M193.666,28.163c-2.138-3.412-4.186-6.916-5.731-10.235
	l-0.137,0.045c0.227,3.867,0.318,7.551,0.318,12.646v13.1h-3.73V13.06h4.321l9.826,15.513c2.275,3.594,4.049,6.823,5.504,9.962
	l0.091-0.046c-0.364-4.094-0.455-7.824-0.455-12.601V13.06h3.73v30.659h-4.003L193.666,28.163z M150.945,44.22
	c-8.098,0-13.784-6.277-13.784-15.556c0-9.736,6.05-16.104,14.238-16.104c8.37,0,13.783,6.414,13.783,15.511
	C165.183,38.625,158.769,44.22,150.945,44.22z M151.217,15.79c-6.55,0-9.826,6.05-9.826,12.783c0,6.551,3.548,12.419,9.78,12.419
	c6.278,0,9.826-5.778,9.826-12.737C160.998,22.158,157.813,15.79,151.217,15.79z M104.221,28.163
	c-2.138-3.412-4.186-6.916-5.732-10.235l-0.137,0.045c0.228,3.867,0.318,7.551,0.318,12.646v13.1h-3.73V13.06h4.321l9.826,15.513
	c2.274,3.594,4.048,6.823,5.504,9.962l0.091-0.046c-0.364-4.094-0.455-7.824-0.455-12.601V13.06h3.73v30.659h-4.003L104.221,28.163z
	 M0.488,0.12h56.871V56.99H0.488V0.12z"/>
</svg>
